<svg xmlns="http://www.w3.org/2000/svg" viewBox="0 0 1904 1980" width="1904" height="1980">
  <path d="M 1284 1553 L 1292 1557 L 1292 1625 L 1285 1628 L 1286 1631 L 1330 1630 L 1327 1626 L 1326 1577 L 1327 1567 L 1334 1556 L 1340 1560 L 1340 1625 L 1337 1631 L 1378 1630 L 1374 1624 L 1375 1567 L 1382 1557 L 1385 1557 L 1388 1562 L 1388 1625 L 1384 1630 L 1429 1630 L 1422 1624 L 1422 1570 L 1415 1553 L 1409 1549 L 1384 1548 L 1373 1558 L 1359 1548 L 1350 1547 L 1336 1548 L 1330 1553 L 1321 1551 L 1287 1551 Z M 1531 1517 L 1540 1522 L 1540 1625 L 1533 1628 L 1533 1631 L 1583 1631 L 1583 1628 L 1575 1624 L 1575 1578 L 1578 1575 L 1607 1577 L 1607 1625 L 1599 1628 L 1599 1631 L 1650 1630 L 1643 1625 L 1643 1521 L 1649 1519 L 1649 1516 L 1602 1515 L 1598 1517 L 1607 1521 L 1607 1568 L 1604 1571 L 1578 1571 L 1575 1568 L 1575 1523 L 1583 1519 L 1583 1516 L 1534 1515 Z M 1189 1520 L 1176 1533 L 1168 1551 L 1166 1567 L 1168 1598 L 1176 1614 L 1189 1627 L 1208 1635 L 1239 1635 L 1261 1629 L 1269 1631 L 1271 1629 L 1271 1585 L 1275 1583 L 1275 1580 L 1228 1580 L 1228 1583 L 1236 1586 L 1236 1627 L 1232 1631 L 1220 1631 L 1215 1627 L 1207 1615 L 1203 1599 L 1203 1544 L 1212 1522 L 1222 1515 L 1234 1516 L 1252 1533 L 1261 1550 L 1265 1550 L 1266 1524 L 1263 1516 L 1254 1516 L 1246 1512 L 1218 1511 L 1207 1512 Z M 1433 1508 L 1433 1511 L 1440 1513 L 1440 1628 L 1436 1634 L 1465 1635 L 1475 1631 L 1480 1635 L 1504 1635 L 1513 1630 L 1523 1618 L 1527 1602 L 1527 1584 L 1522 1567 L 1512 1556 L 1503 1552 L 1486 1552 L 1479 1557 L 1474 1555 L 1474 1512 L 1471 1508 Z M 1484 1561 L 1488 1563 L 1492 1572 L 1492 1616 L 1488 1626 L 1481 1629 L 1475 1623 L 1473 1582 L 1476 1568 Z M 1132 1037 L 1132 1205 L 1134 1207 L 1142 1207 L 1147 1203 L 1154 1203 L 1159 1199 L 1180 1195 L 1186 1191 L 1195 1191 L 1201 1187 L 1231 1183 L 1239 1179 L 1256 1179 L 1266 1175 L 1294 1175 L 1314 1171 L 1378 1172 L 1383 1175 L 1412 1175 L 1421 1179 L 1439 1179 L 1446 1183 L 1478 1187 L 1484 1191 L 1492 1191 L 1499 1195 L 1508 1195 L 1512 1199 L 1520 1199 L 1525 1203 L 1532 1203 L 1537 1207 L 1543 1207 L 1548 1211 L 1574 1219 L 1596 1231 L 1601 1231 L 1650 1259 L 1658 1259 L 1630 1210 L 1587 1156 L 1550 1120 L 1502 1084 L 1466 1064 L 1403 1040 L 1339 1028 L 1305 1027 L 1303 1024 L 1303 989 L 1294 987 L 1290 979 L 1291 975 L 1300 968 L 1299 957 L 1291 954 L 1290 946 L 1310 935 L 1315 928 L 1304 924 L 1293 924 L 1275 911 L 1263 894 L 1263 873 L 1257 871 L 1248 881 L 1241 902 L 1248 926 L 1269 942 L 1270 953 L 1260 957 L 1260 970 L 1266 972 L 1270 980 L 1265 987 L 1260 986 L 1256 989 L 1256 1022 L 1238 1028 L 1149 1032 Z M 1639 668 L 1633 679 L 1617 684 L 1594 696 L 1589 696 L 1576 703 L 1568 698 L 1565 699 L 1583 739 L 1587 738 L 1590 731 L 1627 715 L 1644 713 L 1652 717 L 1652 723 L 1639 732 L 1633 732 L 1629 736 L 1624 736 L 1600 748 L 1586 746 L 1592 766 L 1603 787 L 1607 787 L 1606 781 L 1615 775 L 1629 771 L 1662 755 L 1670 743 L 1670 733 L 1666 722 L 1658 713 L 1649 709 L 1655 699 Z M 1589 600 L 1575 600 L 1557 608 L 1540 625 L 1540 631 L 1536 637 L 1540 659 L 1548 672 L 1560 683 L 1571 687 L 1580 687 L 1584 681 L 1564 679 L 1555 669 L 1552 660 L 1558 649 L 1576 635 L 1580 637 L 1601 675 L 1616 667 L 1626 650 L 1623 631 L 1618 622 L 1606 608 Z M 1610 623 L 1613 627 L 1612 633 L 1598 643 L 1592 644 L 1585 636 L 1590 628 L 1600 623 Z M 315 592 L 300 618 L 296 631 L 357 682 L 351 684 L 345 680 L 331 680 L 324 676 L 311 676 L 304 672 L 291 672 L 280 668 L 274 674 L 259 707 L 261 709 L 270 705 L 309 723 L 329 735 L 358 747 L 361 750 L 361 757 L 366 759 L 375 742 L 373 738 L 363 744 L 284 705 L 292 703 L 300 707 L 313 707 L 320 711 L 357 715 L 364 719 L 384 719 L 392 702 L 323 644 L 329 643 L 341 651 L 394 675 L 397 679 L 396 684 L 399 686 L 403 683 L 415 658 L 419 642 L 406 644 L 351 616 L 346 616 L 322 604 L 318 599 L 319 593 Z M 378 504 L 359 521 L 328 567 L 327 572 L 338 568 L 424 626 L 421 634 L 426 635 L 463 578 L 467 567 L 467 549 L 458 536 L 443 528 L 432 528 L 416 536 L 415 521 L 405 508 L 398 504 Z M 403 561 L 412 555 L 421 555 L 441 568 L 451 582 L 447 593 L 442 596 L 402 570 Z M 355 536 L 365 527 L 377 531 L 396 546 L 400 553 L 397 561 L 392 564 L 362 544 Z M 1400 356 L 1402 362 L 1368 400 L 1360 412 L 1360 426 L 1364 433 L 1375 443 L 1391 448 L 1389 455 L 1418 482 L 1446 516 L 1450 515 L 1450 509 L 1490 476 L 1503 474 L 1508 477 L 1508 482 L 1463 521 L 1452 521 L 1472 549 L 1484 558 L 1480 568 L 1465 564 L 1457 568 L 1454 575 L 1456 594 L 1473 621 L 1482 630 L 1498 639 L 1511 639 L 1520 635 L 1531 625 L 1534 618 L 1534 607 L 1527 591 L 1511 568 L 1514 563 L 1519 567 L 1524 578 L 1537 591 L 1546 595 L 1559 595 L 1573 587 L 1579 578 L 1581 567 L 1591 559 L 1598 562 L 1589 566 L 1589 578 L 1595 583 L 1603 583 L 1608 579 L 1612 568 L 1604 556 L 1591 555 L 1581 559 L 1566 536 L 1555 528 L 1537 527 L 1525 532 L 1516 542 L 1514 558 L 1498 554 L 1483 557 L 1483 547 L 1527 509 L 1531 499 L 1530 490 L 1522 477 L 1503 466 L 1506 461 L 1482 433 L 1478 433 L 1480 441 L 1430 483 L 1426 483 L 1419 476 L 1416 469 L 1459 424 L 1465 414 L 1448 397 L 1437 391 L 1436 400 L 1397 440 L 1387 440 L 1384 437 L 1387 429 L 1430 382 L 1408 360 Z M 1482 579 L 1504 610 L 1503 621 L 1493 626 L 1484 623 L 1475 614 L 1468 601 L 1468 592 Z M 1568 549 L 1566 556 L 1537 576 L 1531 576 L 1528 573 L 1530 566 L 1549 551 L 1561 546 Z M 550 321 L 527 332 L 492 361 L 481 374 L 484 375 L 491 371 L 559 449 L 555 457 L 558 460 L 585 439 L 615 410 L 621 394 L 621 383 L 615 371 L 600 360 L 585 360 L 577 364 L 575 359 L 579 351 L 579 341 L 575 333 L 565 324 Z M 557 384 L 569 379 L 576 383 L 596 407 L 596 420 L 590 427 L 586 427 L 554 391 Z M 520 344 L 531 340 L 552 361 L 556 369 L 556 376 L 551 383 L 543 378 L 519 350 Z M 962 312 L 959 337 L 896 385 L 896 433 L 893 436 L 879 436 L 874 441 L 875 454 L 892 455 L 896 459 L 896 776 L 893 780 L 876 781 L 876 885 L 893 887 L 896 891 L 895 1218 L 890 1223 L 850 1243 L 847 1241 L 847 1069 L 845 1067 L 836 1068 L 761 1107 L 756 1106 L 756 963 L 750 960 L 719 984 L 715 982 L 715 904 L 712 902 L 705 904 L 652 941 L 652 978 L 637 988 L 603 1004 L 599 1000 L 600 970 L 592 968 L 548 992 L 544 996 L 543 1034 L 497 1060 L 490 1059 L 490 1030 L 486 1026 L 476 1028 L 436 1048 L 432 1052 L 431 1094 L 401 1112 L 382 1121 L 379 1118 L 378 1080 L 369 1080 L 323 1105 L 317 1113 L 318 1400 L 322 1402 L 363 1379 L 401 1363 L 407 1363 L 411 1359 L 419 1359 L 423 1355 L 431 1355 L 436 1351 L 446 1351 L 451 1347 L 462 1347 L 467 1343 L 481 1343 L 491 1339 L 511 1339 L 525 1335 L 650 1335 L 670 1339 L 707 1339 L 719 1343 L 742 1343 L 751 1347 L 765 1347 L 773 1351 L 786 1351 L 792 1355 L 804 1355 L 809 1359 L 818 1359 L 836 1367 L 843 1367 L 911 1399 L 941 1419 L 998 1464 L 1079 1539 L 1091 1539 L 1096 1535 L 1102 1535 L 1106 1531 L 1183 1503 L 1187 1499 L 1215 1491 L 1219 1487 L 1226 1487 L 1230 1483 L 1246 1479 L 1251 1475 L 1258 1475 L 1262 1471 L 1270 1471 L 1286 1463 L 1295 1463 L 1299 1459 L 1309 1459 L 1331 1451 L 1343 1451 L 1349 1447 L 1361 1447 L 1368 1443 L 1383 1443 L 1391 1439 L 1409 1439 L 1421 1435 L 1457 1435 L 1463 1432 L 1529 1435 L 1538 1439 L 1553 1439 L 1560 1443 L 1571 1443 L 1576 1447 L 1595 1451 L 1629 1467 L 1668 1494 L 1688 1517 L 1696 1533 L 1696 1566 L 1688 1598 L 1672 1629 L 1641 1664 L 1624 1676 L 1594 1692 L 1563 1703 L 1507 1715 L 1395 1718 L 1347 1715 L 1339 1712 L 1287 1707 L 1282 1704 L 1230 1695 L 1148 1671 L 1085 1647 L 1027 1620 L 939 1565 L 859 1524 L 807 1504 L 755 1488 L 710 1479 L 706 1476 L 667 1471 L 662 1468 L 641 1467 L 635 1464 L 606 1463 L 594 1460 L 484 1459 L 451 1460 L 384 1468 L 324 1480 L 252 1500 L 208 1516 L 162 1538 L 178 1539 L 186 1535 L 204 1535 L 216 1531 L 244 1531 L 259 1527 L 369 1527 L 384 1531 L 411 1531 L 421 1535 L 440 1535 L 448 1539 L 463 1539 L 471 1543 L 483 1543 L 490 1547 L 517 1551 L 523 1555 L 543 1559 L 548 1563 L 557 1563 L 572 1571 L 579 1571 L 652 1603 L 824 1699 L 925 1747 L 931 1747 L 946 1755 L 952 1755 L 957 1759 L 998 1771 L 1004 1775 L 1011 1775 L 1016 1779 L 1025 1779 L 1031 1783 L 1040 1783 L 1045 1787 L 1056 1787 L 1062 1791 L 1072 1791 L 1078 1795 L 1089 1795 L 1096 1799 L 1109 1799 L 1116 1803 L 1156 1807 L 1164 1811 L 1185 1811 L 1196 1815 L 1240 1816 L 1246 1819 L 1302 1819 L 1385 1811 L 1393 1807 L 1422 1803 L 1428 1799 L 1438 1799 L 1444 1795 L 1466 1791 L 1471 1787 L 1479 1787 L 1495 1779 L 1502 1779 L 1506 1775 L 1522 1771 L 1526 1767 L 1531 1767 L 1571 1747 L 1611 1722 L 1653 1687 L 1689 1646 L 1722 1589 L 1738 1544 L 1743 1515 L 1743 1487 L 1734 1447 L 1719 1416 L 1699 1389 L 1673 1364 L 1631 1333 L 1583 1304 L 1543 1284 L 1487 1264 L 1464 1260 L 1457 1256 L 1441 1255 L 1437 1252 L 1422 1252 L 1412 1248 L 1389 1248 L 1374 1244 L 1270 1244 L 1247 1248 L 1189 1272 L 1173 1276 L 1168 1280 L 1152 1284 L 1117 1300 L 1080 1312 L 1046 1327 L 1043 1325 L 1043 887 L 1046 884 L 1063 882 L 1063 781 L 1043 778 L 1043 457 L 1062 454 L 1063 441 L 1058 436 L 1043 434 L 1043 389 L 979 334 L 978 312 Z M 958 667 L 982 667 L 1003 681 L 1012 697 L 1012 724 L 1008 733 L 994 748 L 976 755 L 964 755 L 946 748 L 935 737 L 927 721 L 927 701 L 931 690 L 945 675 Z M 963 483 L 974 483 L 985 487 L 1008 504 L 1008 642 L 1006 644 L 933 644 L 931 642 L 931 506 L 945 492 Z M 644 296 L 628 304 L 612 318 L 608 325 L 608 337 L 617 347 L 630 347 L 639 338 L 639 326 L 634 320 L 626 318 L 627 310 L 631 308 L 640 316 L 653 337 L 628 359 L 627 375 L 637 387 L 656 387 L 670 377 L 677 365 L 684 366 L 702 358 L 707 353 L 710 340 L 703 330 L 701 334 L 704 342 L 697 342 L 670 301 L 662 296 Z M 656 344 L 660 345 L 668 359 L 669 366 L 666 369 L 655 356 L 653 348 Z M 762 240 L 753 240 L 726 253 L 735 262 L 752 299 L 754 316 L 749 323 L 740 313 L 718 261 L 708 260 L 680 274 L 686 276 L 691 283 L 712 329 L 727 339 L 745 335 L 761 320 L 768 323 L 799 307 L 799 305 L 792 306 L 788 301 Z M 788 236 L 788 249 L 799 259 L 814 255 L 819 249 L 819 237 L 811 231 L 814 223 L 819 224 L 823 229 L 831 256 L 829 259 L 809 264 L 796 274 L 794 282 L 796 295 L 805 303 L 827 303 L 837 298 L 842 291 L 850 293 L 871 291 L 879 286 L 883 278 L 880 266 L 877 269 L 877 277 L 875 279 L 871 277 L 859 232 L 854 223 L 845 216 L 821 216 L 800 224 Z M 828 264 L 833 266 L 836 273 L 837 290 L 835 292 L 831 290 L 827 281 Z M 1134 218 L 1136 233 L 1132 237 L 1132 243 L 1128 248 L 1128 254 L 1120 273 L 1120 291 L 1132 303 L 1142 307 L 1156 307 L 1161 304 L 1163 310 L 1169 314 L 1205 324 L 1239 343 L 1242 341 L 1239 332 L 1260 293 L 1270 283 L 1277 281 L 1282 285 L 1280 294 L 1255 340 L 1247 344 L 1247 347 L 1280 364 L 1326 398 L 1329 397 L 1324 390 L 1327 381 L 1335 374 L 1348 354 L 1365 340 L 1373 340 L 1376 346 L 1365 348 L 1360 353 L 1360 362 L 1369 371 L 1383 371 L 1390 365 L 1394 357 L 1391 345 L 1381 336 L 1366 336 L 1364 334 L 1366 327 L 1336 306 L 1333 306 L 1336 315 L 1300 364 L 1293 368 L 1284 361 L 1283 358 L 1310 306 L 1310 295 L 1298 280 L 1290 276 L 1271 274 L 1293 231 L 1287 224 L 1283 224 L 1264 212 L 1257 213 L 1262 218 L 1260 225 L 1248 243 L 1211 316 L 1203 320 L 1195 316 L 1195 310 L 1203 290 L 1203 282 L 1207 278 L 1215 254 L 1215 244 L 1180 233 L 1184 242 L 1180 247 L 1180 254 L 1168 288 L 1160 299 L 1153 300 L 1151 287 L 1170 231 L 1159 224 L 1151 224 L 1147 220 Z M 1193 200 L 1186 211 L 1188 219 L 1198 225 L 1210 223 L 1215 213 L 1213 206 L 1206 200 Z M 876 204 L 876 207 L 884 211 L 888 264 L 896 278 L 907 283 L 922 283 L 937 274 L 944 279 L 965 275 L 982 277 L 997 275 L 1009 280 L 1032 279 L 1047 266 L 1048 243 L 1044 234 L 1030 224 L 1009 218 L 1003 212 L 1003 208 L 1008 203 L 1017 201 L 1029 205 L 1040 220 L 1045 222 L 1047 219 L 1046 200 L 1038 203 L 1023 196 L 1008 196 L 993 204 L 985 217 L 984 230 L 988 238 L 997 247 L 1021 255 L 1031 263 L 1031 269 L 1020 276 L 1009 275 L 1001 271 L 995 265 L 987 249 L 983 251 L 982 270 L 979 272 L 972 270 L 967 201 L 963 196 L 948 196 L 927 201 L 932 206 L 933 224 L 936 230 L 936 265 L 930 272 L 924 270 L 920 257 L 919 213 L 916 202 L 905 200 L 891 204 Z M 1168 188 L 1156 197 L 1156 206 L 1165 215 L 1175 215 L 1183 207 L 1183 197 L 1180 193 Z M 1116 160 L 1100 160 L 1090 164 L 1077 178 L 1070 198 L 1063 205 L 1068 210 L 1068 217 L 1064 225 L 1064 239 L 1060 246 L 1056 274 L 1048 278 L 1051 281 L 1076 287 L 1090 287 L 1098 291 L 1106 290 L 1104 287 L 1092 284 L 1089 280 L 1096 238 L 1099 233 L 1099 221 L 1105 213 L 1121 214 L 1108 211 L 1103 206 L 1108 175 L 1113 167 L 1118 166 L 1123 170 L 1123 173 L 1112 181 L 1112 189 L 1117 195 L 1135 196 L 1143 186 L 1143 178 L 1137 169 L 1130 164 L 1123 164 Z" fill="#f4de82" fill-rule="evenodd"/>
</svg>